<svg xmlns="http://www.w3.org/2000/svg" viewBox="0 0 100 100">
  <defs>
    <linearGradient id="grad" x1="0%" y1="0%" x2="100%" y2="100%">
      <stop offset="0%" style="stop-color:#f97316;stop-opacity:1" />
      <stop offset="100%" style="stop-color:#ea580c;stop-opacity:1" />
    </linearGradient>
  </defs>
  <rect width="100" height="100" rx="20" fill="url(#grad)"/>
  <g fill="none" stroke="white" stroke-width="4" stroke-linecap="round" stroke-linejoin="round">
    <path d="M25 65h50M25 65a8 8 0 1 1-16 0 8 8 0 0 1 16 0zM25 65h-6m56 0a8 8 0 1 0 16 0 8 8 0 0 0-16 0zm0 0h6m-6-20l-8-20H37l-8 20m46 0H25m-8 0H75"/>
  </g>
</svg>
